M48
; DRILL file {KiCad 9.0.4} date 2025-10-08T20:13:15+0300
; FORMAT={-:-/ absolute / metric / decimal}
; #@! TF.CreationDate,2025-10-08T20:13:15+03:00
; #@! TF.GenerationSoftware,Kicad,Pcbnew,9.0.4
; #@! TF.FileFunction,Plated,1,2,PTH
FMAT,2
METRIC
; #@! TA.AperFunction,Plated,PTH,ComponentDrill
T1C0.750
; #@! TA.AperFunction,Plated,PTH,ComponentDrill
T2C1.000
%
G90
G05
T1
X97.0Y-51.0
X98.5Y-65.0
X98.5Y-67.0
X98.5Y-69.0
X98.5Y-71.0
X98.5Y-73.0
X98.5Y-75.0
X98.5Y-77.0
X98.5Y-79.0
X99.0Y-51.0
X122.5Y-50.95
X122.5Y-58.5
X124.0Y-65.0
X124.0Y-67.0
X124.0Y-69.0
X124.0Y-71.0
X124.0Y-73.0
X124.0Y-75.0
X124.0Y-77.0
X124.0Y-79.0
X124.5Y-50.95
X124.5Y-58.5
T2
X103.015Y-48.92
X103.015Y-51.46
X103.015Y-54.0
X103.015Y-56.54
X103.015Y-59.08
X103.015Y-61.62
X103.015Y-64.16
X103.015Y-66.7
X103.015Y-69.24
X103.015Y-71.78
X103.015Y-74.32
X103.015Y-76.86
X103.015Y-79.4
X106.088Y-76.306
X108.628Y-76.306
X111.168Y-76.306
X118.255Y-48.92
X118.255Y-51.46
X118.255Y-54.0
X118.255Y-56.54
X118.255Y-59.08
X118.255Y-61.62
X118.255Y-64.16
X118.255Y-66.7
X118.255Y-69.24
X118.255Y-71.78
X118.255Y-74.32
X118.255Y-76.86
X118.255Y-79.4
M30
